# File created by Blade
# Date/Time:  Thu Jan 22 19:29:39 2015
# Frame Rate: 120.000 fps
#------------------------------------------------------
:FULLY-SPECIFIED
:DEGREES
1503
root 2.154587 33.645204 1.174208 88.679320 -15.569767 -25.018850
RightUpLeg -7.270691 18.408116 -30.288695
RightLeg 151.156945 -0.000000 -0.000000
RightFoot 35.574201 5.657336 4.700488
RightToeBase -19.653130 -0.000000 0.000000
LeftUpLeg -91.443328 13.565854 7.865661
LeftLeg 31.691421 -0.000000 -0.000000
LeftFoot -25.867423 13.293709 -8.346139
LeftToeBase 6.340345 -0.000000 -0.000000
Spine -15.538195 -5.268085 -1.637039
RightShoulder -21.284743 -31.885952 -11.751210
RightArm 9.596216 -63.866305 59.187463
RightForeArm 36.006810 0.000000 41.420019
RightHand -10.206044 -0.000000 13.288433
RightHandThumb1 -24.326973 -0.000000 -32.862282
LeftShoulder -37.090920 3.811101 35.335828
LeftArm 152.467201 -40.545301 -117.051415
LeftForeArm -12.806717 -0.000000 59.864264
LeftHand -14.933486 0.000000 11.894877
LeftHandThumb1 -26.253704 0.000000 33.147579
Head -40.598086 24.509975 -12.927428
1504
root 2.164928 33.643801 1.172624 88.755082 -15.664888 -25.106829
RightUpLeg -7.335716 18.395375 -30.312158
RightLeg 151.164496 -0.000000 -0.000000
RightFoot 35.556869 5.603265 4.718962
RightToeBase -19.511238 -0.000000 0.000000
LeftUpLeg -91.511892 13.646287 7.833588
LeftLeg 31.803578 -0.000000 -0.000000
LeftFoot -25.912035 13.243023 -8.430858
LeftToeBase 6.308335 -0.000000 -0.000000
Spine -15.560056 -5.208464 -1.678078
RightShoulder -21.345830 -31.845379 -11.684605
RightArm 9.512547 -63.901207 59.237659
RightForeArm 35.827757 -0.000000 41.431334
RightHand -10.199290 -0.000000 13.125806
RightHandThumb1 -24.326973 -0.000000 -32.862282
LeftShoulder -37.086426 3.778553 35.387385
LeftArm 152.443553 -40.653844 -117.096685
LeftForeArm -12.815965 -0.000000 59.848879
LeftHand -14.956737 0.000000 11.879620
LeftHandThumb1 -26.253704 0.000000 33.147579
Head -40.630519 24.520869 -12.930074
1505
root 2.175135 33.642235 1.170700 88.797218 -15.742667 -25.176741
RightUpLeg -7.361447 18.367293 -30.300131
RightLeg 151.176113 -0.000000 -0.000000
RightFoot 35.567709 5.494701 4.762572
RightToeBase -19.599551 -0.000000 0.000000
LeftUpLeg -91.566066 13.710830 7.792123
LeftLeg 31.912747 -0.000000 -0.000000
LeftFoot -25.947937 13.160405 -8.534562
LeftToeBase 6.278855 -0.000000 -0.000000
Spine -15.548950 -5.191913 -1.679561
RightShoulder -21.371707 -31.845417 -11.647226
RightArm 9.536968 -63.857418 59.222178
RightForeArm 35.924759 -0.000000 41.389204
RightHand -10.184919 0.000000 13.226430
RightHandThumb1 -24.326973 -0.000000 -32.862282
LeftShoulder -37.105743 3.763914 35.399638
LeftArm 152.437752 -40.778536 -117.135944
LeftForeArm -12.845165 -0.000000 59.829153
LeftHand -14.984468 -0.000000 11.897023
LeftHandThumb1 -26.253704 0.000000 33.147579
Head -40.672754 24.553183 -12.964608
1506
root 2.187249 33.641492 1.169347 88.873269 -15.846974 -25.252079
RightUpLeg -7.428394 18.347642 -30.337301
RightLeg 151.190229 -0.000000 -0.000000
RightFoot 35.567557 5.589557 4.657658
RightToeBase -19.618104 -0.000000 0.000000
LeftUpLeg -91.645935 13.788432 7.685386
LeftLeg 31.999964 -0.000000 -0.000000
LeftFoot -25.987235 13.048281 -8.653654
LeftToeBase 6.195246 -0.000000 -0.000000
Spine -15.578728 -5.178406 -1.708571
RightShoulder -21.382726 -31.811771 -11.638408
RightArm 9.470196 -63.912395 59.289965
RightForeArm 35.727935 0.000000 41.404251
RightHand -10.134460 -0.000000 13.034155
RightHandThumb1 -24.326973 -0.000000 -32.862282
LeftShoulder -37.125176 3.781562 35.405875
LeftArm 152.461984 -40.902329 -117.200992
LeftForeArm -12.879724 -0.000000 59.798814
LeftHand -14.958465 0.000000 11.888937
LeftHandThumb1 -26.253704 0.000000 33.147579
Head -40.714868 24.606573 -12.990067
1507
root 2.196359 33.640374 1.168476 88.906597 -15.925848 -25.315967
RightUpLeg -7.438406 18.313490 -30.306748
RightLeg 151.214804 -0.000000 -0.000000
RightFoot 35.571350 5.554478 4.694645
RightToeBase -19.661473 -0.000000 0.000000
LeftUpLeg -91.687371 13.862237 7.583736
LeftLeg 32.078628 -0.000000 -0.000000
LeftFoot -26.050593 12.882169 -8.817996
LeftToeBase 6.258587 -0.000000 -0.000000
Spine -15.562038 -5.183468 -1.697162
RightShoulder -21.379647 -31.869034 -11.615883
RightArm 9.580097 -63.838121 59.227019
RightForeArm 35.892314 -0.000000 41.380925
RightHand -10.204839 -0.000000 13.284420
RightHandThumb1 -24.326973 -0.000000 -32.862282
LeftShoulder -37.144125 3.765172 35.401546
LeftArm 152.460470 -41.046427 -117.241230
LeftForeArm -12.934509 -0.000000 59.773881
LeftHand -14.951048 -0.000000 11.888543
LeftHandThumb1 -26.253704 0.000000 33.147579
Head -40.766580 24.647404 -13.047749
1508
root 2.206086 33.639964 1.166915 88.957958 -16.006853 -25.351986
RightUpLeg -7.449515 18.261495 -30.267574
RightLeg 151.248502 -0.000000 -0.000000
RightFoot 35.534576 5.569076 4.715550
RightToeBase -19.575234 -0.000000 0.000000
LeftUpLeg -91.766920 13.926247 7.431627
LeftLeg 32.145360 -0.000000 -0.000000
LeftFoot -26.064915 12.670946 -8.949341
LeftToeBase 6.237995 -0.000000 -0.000000
Spine -15.589055 -5.199953 -1.705486
RightShoulder -21.378178 -31.886091 -11.590711
RightArm 9.525105 -63.845846 59.295213
RightForeArm 35.721646 -0.000000 41.423747
RightHand -10.158988 0.000000 13.057527
RightHandThumb1 -24.326973 -0.000000 -32.862282
LeftShoulder -37.137774 3.782734 35.403615
LeftArm 152.483262 -41.182291 -117.309720
LeftForeArm -13.005358 -0.000000 59.757381
LeftHand -14.920314 -0.000000 11.877889
LeftHandThumb1 -26.253704 0.000000 33.147579
Head -40.769015 24.699158 -13.048331
